<svg width="30" height="26" viewBox="0 0 30 26" fill="none" xmlns="http://www.w3.org/2000/svg">
<path opacity="0.5" d="M21.3672 1C25.6 1 28.9998 4.37979 29 8.54492C29 10.7606 28.0301 12.7383 26.5137 14.1055L26.4961 14.1221L26.4795 14.1387L17.1123 23.4414C16.6244 23.9244 16.2115 24.3308 15.8145 24.624C15.4115 24.9215 15.157 25 15 25C14.8511 25 14.6005 24.9213 14.1904 24.6152C13.7892 24.3157 13.3812 23.9143 12.8877 23.4414L3.52051 14.1387L3.50391 14.1221L3.48535 14.1055L3.20801 13.8428C1.85306 12.489 1 10.5957 1 8.54492C1.00021 4.37956 4.40026 1 8.63281 1C10.8812 1.00009 12.883 1.9644 14.2637 3.46484L14.999 4.26367L15.7354 3.46582C17.1441 1.93735 19.1454 1.00009 21.3672 1Z" stroke="black" stroke-width="2"/>
</svg>
