<svg width="26" height="26" viewBox="0 0 26 26" fill="none" xmlns="http://www.w3.org/2000/svg">
<path opacity="0.5" fill-rule="evenodd" clip-rule="evenodd" d="M13.4549 1.76456C13.18 1.5788 12.82 1.5788 12.5451 1.76456L1.98257 8.90326C1.75898 9.05441 1.625 9.30673 1.625 9.5766V23.5621C1.625 24.011 1.98877 24.3748 2.4375 24.3748H7.3125V15.2808C7.3125 13.9344 8.40377 12.8429 9.75 12.8429H16.25C17.5962 12.8429 18.6875 13.9344 18.6875 15.2808V24.3748H23.5625C24.0112 24.3748 24.375 24.011 24.375 23.5621V9.5766C24.375 9.30673 24.241 9.05441 24.0174 8.90326L13.4549 1.76456ZM11.6352 0.417955C12.4598 -0.139317 13.5402 -0.139319 14.3648 0.417954L24.9273 7.5567C25.5981 8.01005 26 8.7669 26 9.5766V23.5621C26 24.9086 24.9087 26 23.5625 26H17.875C17.4263 26 17.0625 25.6362 17.0625 25.1874V15.2808C17.0625 14.832 16.6987 14.4681 16.25 14.4681H9.75C9.30126 14.4681 8.9375 14.832 8.9375 15.2808V25.1874C8.9375 25.6362 8.57374 26 8.125 26H2.4375C1.09131 26 0 24.9085 0 23.5621V9.5766C0 8.7669 0.401953 8.01005 1.07273 7.5567L11.6352 0.417955Z" fill="black"/>
</svg>
