<svg width="24" height="27" viewBox="0 0 24 27" fill="none" xmlns="http://www.w3.org/2000/svg">
<g opacity="0.5">
<path d="M12.4609 14.8584C9.03648 15.1683 6.04426 12.2108 5.6253 8.93338C5.52638 8.16819 5.53365 6.62327 5.60202 5.83045C5.88279 2.58931 8.32964 0.412976 11.4414 0.0174754C14.716 -0.22692 17.6618 2.11955 18.216 5.3344C18.3556 6.14614 18.3585 8.0111 18.2683 8.85629C18.0021 11.3832 16.1299 13.7732 13.7137 14.5747C13.3035 14.71 12.8871 14.7857 12.4609 14.8584ZM11.7146 1.68141C10.033 1.79779 8.5215 2.71865 7.76223 4.23157C7.19926 5.35316 7.18905 7.26758 7.2851 8.55639C7.46112 10.9218 9.67524 13.4502 12.135 13.2566L12.1976 13.2508C13.6057 13.0588 14.6953 12.3997 15.5522 11.2709C16.6432 9.83505 16.6316 8.77748 16.6301 7.12334C16.6301 6.60401 16.6607 6.07303 16.5879 5.55806C16.2795 3.34396 13.9462 1.4386 11.7146 1.68141Z" fill="black"/>
<path d="M18.3065 14.6257C21.293 15.8506 23.5042 18.5475 23.8025 21.8106C23.8985 22.858 23.9742 24.4029 23.2875 25.2176C22.4627 26.1937 21.3237 26.1079 20.1788 26.1064H3.23702C2.85444 26.1064 2.46166 26.1239 2.08194 26.0773C0.974876 25.942 0.103508 24.9164 0.0264184 23.8268C-0.267437 19.6402 1.90304 15.8885 5.89339 14.464C6.21779 14.3491 6.5393 14.2298 6.88408 14.2066C6.97427 14.1964 8.35481 15.2947 8.52649 15.4315C4.10559 16.4265 1.71396 18.7191 1.70242 23.2491C1.69806 24.8246 2.48363 24.4362 3.83362 24.4362H19.4198C19.8751 24.4362 21.3851 24.5264 21.7561 24.314C22.2958 24.0041 22.1998 23.4819 22.1998 22.9451C22.1925 19.6457 20.2984 17.0271 17.1722 15.9259C16.5816 15.7178 15.9575 15.5753 15.348 15.4313C15.8121 15.021 16.4739 14.6617 17.0049 14.2064C17.453 14.3198 17.8778 14.4508 18.3069 14.6253L18.3065 14.6257Z" fill="black"/>
</g>
</svg>
