<svg width="29" height="26" viewBox="0 0 29 26" fill="none" xmlns="http://www.w3.org/2000/svg">
<path opacity="0.5" d="M25.5476 5.4795H22.7749C23.1746 4.95781 23.4144 4.33326 23.4658 3.68031C23.5172 3.02736 23.3779 2.37354 23.0647 1.7968C22.7514 1.22007 22.2773 0.74473 21.699 0.427459C21.1206 0.110188 20.4623 -0.0356351 19.8026 0.00737229C16.9329 0.00737229 15.3092 2.37872 14.5 4.14086C13.6908 2.37872 12.0671 0.00737229 9.19736 0.00737229C8.53767 -0.0356351 7.87941 0.110188 7.30105 0.427459C6.72268 0.74473 6.24861 1.22007 5.93535 1.7968C5.62208 2.37354 5.48283 3.02736 5.5342 3.68031C5.58557 4.33326 5.82539 4.95781 6.22507 5.4795H3.45238C2.53705 5.48046 1.65948 5.84109 1.01224 6.48228C0.365002 7.12346 0.000961414 7.99282 0 8.89959V22.5799C0.000961414 23.4867 0.365002 24.356 1.01224 24.9972C1.65948 25.6384 2.53705 25.999 3.45238 26H25.5476C26.463 25.999 27.3405 25.6384 27.9878 24.9972C28.635 24.356 28.999 23.4867 29 22.5799V8.89959C28.999 7.99282 28.635 7.12346 27.9878 6.48228C27.3405 5.84109 26.463 5.48046 25.5476 5.4795ZM19.8026 1.37541C20.0923 1.34623 20.385 1.37758 20.6617 1.46742C20.9384 1.55726 21.193 1.7036 21.409 1.89699C21.6251 2.09037 21.7978 2.3265 21.916 2.59012C22.0342 2.85374 22.0953 3.13899 22.0953 3.42745C22.0953 3.71592 22.0342 4.00117 21.916 4.26479C21.7978 4.52841 21.6251 4.76454 21.409 4.95792C21.193 5.15131 20.9384 5.29765 20.6617 5.38749C20.385 5.47733 20.0923 5.50868 19.8026 5.4795H15.4423C15.9635 4.0673 17.2859 1.37541 19.8026 1.37541ZM9.19736 1.37541C11.7047 1.37541 13.0315 4.06697 13.5556 5.4795H9.19736C8.90767 5.50868 8.61502 5.47733 8.33832 5.38749C8.06162 5.29765 7.80702 5.15131 7.59096 4.95792C7.3749 4.76454 7.20219 4.52841 7.08398 4.26479C6.96577 4.00117 6.90469 3.71592 6.90469 3.42745C6.90469 3.13899 6.96577 2.85374 7.08398 2.59012C7.20219 2.3265 7.3749 2.09037 7.59096 1.89699C7.80702 1.7036 8.06162 1.55726 8.33832 1.46742C8.61502 1.37758 8.90767 1.34623 9.19736 1.37541ZM27.619 22.5799C27.6184 23.124 27.4 23.6456 27.0117 24.0303C26.6233 24.415 26.0968 24.6314 25.5476 24.632H3.45238C2.90319 24.6314 2.37666 24.415 1.98832 24.0303C1.59998 23.6456 1.38155 23.124 1.38095 22.5799V20.5279H27.619V22.5799ZM27.619 19.1598H1.38095V8.89959C1.38155 8.35553 1.59998 7.83393 1.98832 7.44922C2.37666 7.06452 2.90319 6.84813 3.45238 6.84754H13.1187L9.80422 11.2255C9.69442 11.3708 9.64737 11.5533 9.67342 11.733C9.69947 11.9126 9.79649 12.0746 9.94313 12.1834C10.0898 12.2922 10.274 12.3388 10.4554 12.313C10.6367 12.2872 10.8003 12.1911 10.9101 12.0458L14.5 7.30378L18.0899 12.0458C18.1443 12.1177 18.2124 12.1783 18.2905 12.2242C18.3685 12.27 18.4548 12.3002 18.5446 12.313C18.6344 12.3258 18.7259 12.3209 18.8138 12.2987C18.9016 12.2764 18.9843 12.2373 19.0569 12.1834C19.1295 12.1295 19.1907 12.062 19.2369 11.9848C19.2832 11.9075 19.3137 11.8219 19.3266 11.733C19.3395 11.644 19.3346 11.5534 19.3121 11.4664C19.2897 11.3793 19.2501 11.2974 19.1958 11.2255L15.8813 6.84754H25.5476C26.0968 6.84813 26.6233 7.06452 27.0117 7.44922C27.4 7.83393 27.6184 8.35553 27.619 8.89959V19.1598Z" fill="black"/>
</svg>
